# xmcd
#
# Track frame offsets:
#   150
#   13262
#   28492
#   42911
#   56529
#   75070
#   90288
#   103081
#   123405
#   142315
#   158160
#   175293
#   193331
#   203628
#   219650
#   235013
#   246066
#   265516
#   280821
#   299466
#
# Disc length: 4225 seconds
#
# Revision: 0
# Processed by: cddbd v1.5.2PL0 Copyright (c) Steve Scherf et al.
# Submitted via: GXTranscoder 2.0.1939
#
DISCID=1f107f14
DTITLE=Texas Lightning - Meanwhile, Back at the Golden Ranch
DYEAR=2006
DGENRE=Country
TTITLE0=Bad Case Of Lovin' You
TTITLE1=Like A Virgin
TTITLE2=I Promise
TTITLE3=No No Never
TTITLE4=Kiss
TTITLE5=Enjoy The Silence
TTITLE6=C'est La Vie
TTITLE7=Over The Mountains
TTITLE8=Man In the Mirror
TTITLE9=Dancing Queen
TTITLE10=Highway To Hell
TTITLE11=You're The Voice
TTITLE12=Norwegian Wood
TTITLE13=Nothing Compares 2 U
TTITLE14=Out There Somewhere
TTITLE15=Raindrops Kepp Falling On My Head
TTITLE16=Blue Bayou
TTITLE17=Smoke, Smoke, Smoke (That Cigarette)
TTITLE18=Walk On The Wild Side
TTITLE19=This Is Me
EXTD=
EXTT0=
EXTT1=
EXTT2=
EXTT3=
EXTT4=
EXTT5=
EXTT6=
EXTT7=
EXTT8=
EXTT9=
EXTT10=
EXTT11=
EXTT12=
EXTT13=
EXTT14=
EXTT15=
EXTT16=
EXTT17=
EXTT18=
EXTT19=
PLAYORDER=
